<svg xmlns="http://www.w3.org/2000/svg" viewBox="0 0 1880.01 1880"><defs><style>.cls-1{fill:#0047bb;}.cls-1,.cls-2{stroke:#fff;stroke-miterlimit:10;stroke-width:40px;}.cls-2{fill:none;}.cls-3{fill:#fff;}</style></defs><g id="Contorno"><path d="M999.81,1940.5c-31.66,0-60.12-11.18-84.58-33.23-2.2-2-4.07-3.86-5.58-5.38L827.75,1820l-27.67,13.23c-18.61,8.9-37.41,13.42-55.89,13.42a117.48,117.48,0,0,1-25.26-2.78c-35.74-7.89-63.95-29.21-81.58-61.65-1.36-2.5-2.45-4.81-3.33-6.66L501.07,1497.3,452.84,1474,224.69,1363.85c-27.06-13.06-46.91-32.14-59-56.71-16.18-32.84-17.17-68.18-2.85-102.22,1.1-2.63,2.22-4.92,3.12-6.77l13-26.93L100,1092.3c-22.09-22.08-35-47.65-38.46-76C57,978.8,68.07,944,93.49,915.55c2.11-2.36,4.13-4.37,5.76-6l1-1,80.85-80.87L167.75,799.9c-12.94-27.07-16.47-54.4-10.5-81.22,7.9-35.46,29.06-63.51,61.22-81.14,2.67-1.47,5.13-2.63,7.11-3.57L502.4,501.67l27.7-57.35Q583.2,334.4,636.28,224.48c13-27,32.17-46.86,56.85-59a121.09,121.09,0,0,1,53.66-12.82,124.41,124.41,0,0,1,47.94,9.91C797.55,163.79,800,165,802,166l1.13.55,26.36,12.73L908.63,100c22.09-22.1,47.64-35.06,75.94-38.51a138.1,138.1,0,0,1,16.63-1c31.71,0,60.2,11.22,84.68,33.33,2.35,2.13,4.4,4.19,6,5.85l1.09,1.09L1173.23,181,1201,167.71c18.55-8.88,37.32-13.37,55.79-13.37a117.43,117.43,0,0,1,25.39,2.8c35.75,7.92,63.94,29.27,81.53,61.75,1.45,2.68,2.63,5.18,3.58,7.19l.63,1.32,131.63,275.47,59.71,28.83,216.24,104.42c27,13,46.88,32.15,59,56.77,16.15,32.86,17.1,68.21,2.74,102.24-1.19,2.8-2.4,5.29-3.38,7.29l-.64,1.32-12.12,25.08,22.82,22.81,56.43,56.42c22.82,22.8,36.07,49.23,39.39,78.53.39,3.45.54,6.6.65,8.9,0,.66.06,1.29.1,1.88l.09,1.54,0,1.54c-.48,34-12.38,63.42-35.38,87.49-1.51,1.58-3,3-4.28,4.35L1820,1173.21l12.94,27.07c13.37,28,16.91,56.14,10.53,83.78-.75,3.27-1.62,6.16-2.26,8.28-.17.58-.34,1.14-.49,1.67l-.42,1.48-.53,1.44c-11.32,30.66-31.55,53.54-60.12,68-1.73.87-3.48,1.71-5.23,2.55l-277.58,132.67-27.57,57.07q-52.51,108.73-105,217.47c-13.47,27.91-33.27,48.29-58.83,60.58-3,1.45-5.83,2.58-7.89,3.41-.56.23-1.1.44-1.6.66l-1.42.59-1.46.49a127.57,127.57,0,0,1-40.23,6.73h0a120.88,120.88,0,0,1-50.4-11.18c-1.74-.78-3.46-1.61-5.17-2.44l-25.25-12.2-79.54,79.56c-22.11,22.12-47.64,35.1-75.88,38.57A138.05,138.05,0,0,1,999.81,1940.5Z" transform="translate(-60.58 -60.5)"/><path d="M999.81,1940.5c-31.66,0-60.12-11.18-84.58-33.23-2.2-2-4.07-3.86-5.58-5.38L827.75,1820l-27.67,13.23c-18.61,8.9-37.41,13.42-55.89,13.42a117.48,117.48,0,0,1-25.26-2.78c-35.74-7.89-63.95-29.21-81.58-61.65-1.36-2.5-2.45-4.81-3.33-6.66L501.07,1497.3,452.84,1474,224.69,1363.85c-27.06-13.06-46.91-32.14-59-56.71-16.18-32.84-17.17-68.18-2.85-102.22,1.1-2.63,2.22-4.92,3.12-6.77l13-26.93L100,1092.3c-22.09-22.08-35-47.65-38.46-76C57,978.8,68.07,944,93.49,915.55c2.11-2.36,4.13-4.37,5.76-6l1-1,80.85-80.87L167.75,799.9c-12.94-27.07-16.47-54.4-10.5-81.22,7.9-35.46,29.06-63.51,61.22-81.14,2.67-1.47,5.13-2.63,7.11-3.57L502.4,501.67l27.7-57.35Q583.2,334.4,636.28,224.48c13-27,32.17-46.86,56.85-59a121.09,121.09,0,0,1,53.66-12.82,124.41,124.41,0,0,1,47.94,9.91C797.55,163.79,800,165,802,166l1.13.55,26.36,12.73L908.63,100c22.09-22.1,47.64-35.06,75.94-38.51a138.1,138.1,0,0,1,16.63-1c31.71,0,60.2,11.22,84.68,33.33,2.35,2.13,4.4,4.19,6,5.85l1.09,1.09L1173.23,181,1201,167.71c18.55-8.88,37.32-13.37,55.79-13.37a117.43,117.43,0,0,1,25.39,2.8c35.75,7.92,63.94,29.27,81.53,61.75,1.45,2.68,2.63,5.18,3.58,7.19l.63,1.32,131.63,275.47,59.71,28.83,216.24,104.42c27,13,46.88,32.15,59,56.77,16.15,32.86,17.1,68.21,2.74,102.24-1.19,2.8-2.4,5.29-3.38,7.29l-.64,1.32-12.12,25.08,22.82,22.81,56.43,56.42c22.82,22.8,36.07,49.23,39.39,78.53.39,3.45.54,6.6.65,8.9,0,.66.06,1.29.1,1.88l.09,1.54,0,1.54c-.48,34-12.38,63.42-35.38,87.49-1.51,1.58-3,3-4.28,4.35L1820,1173.21l12.94,27.07c13.37,28,16.91,56.14,10.53,83.78-.75,3.27-1.62,6.16-2.26,8.28-.17.58-.34,1.14-.49,1.67l-.42,1.48-.53,1.44c-11.32,30.66-31.55,53.54-60.12,68-1.73.87-3.48,1.71-5.23,2.55l-277.58,132.67-27.57,57.07q-52.51,108.73-105,217.47c-13.47,27.91-33.27,48.29-58.83,60.58-3,1.45-5.83,2.58-7.89,3.41-.56.23-1.1.44-1.6.66l-1.42.59-1.46.49a127.57,127.57,0,0,1-40.23,6.73h0a120.88,120.88,0,0,1-50.4-11.18c-1.74-.78-3.46-1.61-5.17-2.44l-25.25-12.2-79.54,79.56c-22.11,22.12-47.64,35.1-75.88,38.57A138.05,138.05,0,0,1,999.81,1940.5Z" transform="translate(-60.58 -60.5)"/></g><g id="Orig"><path class="cls-1" d="M1900.57,999.87c-.34,23.7-8.31,43.68-24.31,60.42-1.25,1.31-2.54,2.6-3.82,3.88q-404.16,404.2-808.29,808.44c-14.71,14.72-31.63,24.59-52.47,27.15-26.62,3.27-49.8-4.29-69.68-22.2-1.71-1.55-3.32-3.21-5-4.84Q532.7,1468.35,128.32,1064c-14.72-14.71-24.51-31.68-27-52.53-3.21-26.43,4.32-49.48,22-69.27,1.65-1.84,3.43-3.56,5.18-5.31Q532.73,532.64,936.92,128.32c14.72-14.72,31.66-24.54,52.5-27.09,26.62-3.25,49.8,4.35,69.65,22.28,2,1.77,3.79,3.68,5.65,5.54q403.65,403.68,807.35,807.29c15.38,15.36,25.46,33,27.92,54.73C1900.34,994.18,1900.41,997.31,1900.57,999.87Z" transform="translate(-60.58 -60.5)"/><path class="cls-2" d="M1802.22,1283.08c-7.75,21-21.14,36.28-40.65,46.16-1.53.77-3.08,1.51-4.62,2.25q-487.08,232.79-974.13,465.64c-17.73,8.48-35.9,11.94-55.26,7.66-24.74-5.46-43-19.49-55.06-41.69-1-1.91-2-3.9-2.89-5.87Q436.75,1269.92,203.84,782.65c-8.48-17.73-11.86-35.92-7.55-55.28,5.47-24.55,19.42-42.7,41.41-54.76,2-1.12,4.18-2.09,6.28-3.1q487.17-232.83,974.3-465.72c17.73-8.48,35.91-11.89,55.27-7.6,24.73,5.48,43,19.54,55,41.75,1.19,2.19,2.22,4.47,3.29,6.71q232.47,486.47,465,972.89c8.85,18.52,12.28,37.4,7.64,57.52C1803.81,1277.94,1802.88,1280.75,1802.22,1283.08Z" transform="translate(-60.58 -60.5)"/><path class="cls-2" d="M1280.41,1802.46c-21.24,7.07-41.54,6.17-61.44-2.89-1.56-.71-3.1-1.46-4.64-2.2q-486.12-234.8-972.25-469.55c-17.7-8.54-31.76-20.56-40.52-38.35-11.19-22.72-11.66-45.75-1.86-69,.84-2,1.83-4,2.78-5.93Q437.41,728.2,672.3,241.87c8.55-17.7,20.64-31.7,38.44-40.43,22.58-11.08,45.47-11.53,68.62-1.9,2.16.9,4.25,2,6.35,3q486.19,234.84,972.42,469.63c17.7,8.54,31.73,20.61,40.47,38.4,11.18,22.73,11.61,45.76,1.78,69-1,2.29-2.1,4.52-3.18,6.76q-234.53,485.48-469,971c-8.92,18.49-21.52,33-40.13,41.92C1285.42,1800.49,1282.64,1801.52,1280.41,1802.46Z" transform="translate(-60.58 -60.5)"/></g><g id="Capa_3" data-name="Capa 3"><path class="cls-3" d="M783.54,805.89V975.81l-75.19-37.92A148.69,148.69,0,0,1,630.77,959q-63.22,0-108-44.88T478,805.89q0-63.36,44.78-108.24t108-44.88q63.21,0,108,44.88T783.54,805.89Zm-92.67-60q-24.68-24.95-60.1-25t-60.11,25q-24.66,25-24.66,60t24.66,60q24.66,25,60.11,25t60.1-25q24.66-24.95,24.66-60T690.87,745.89Z" transform="translate(-60.58 -60.5)"/><path class="cls-3" d="M970.79,959q-63.22,0-108-44.88T818,805.89q0-63.36,44.78-108.24t108-44.88a148.15,148.15,0,0,1,83.09,24.72q37.59,24.74,55.79,65H1027.3q-24.43-22.06-56.51-22.08-35,0-59.87,25T886,805.89q0,35.05,24.9,60t59.87,25q38.31,0,64.17-29.28H1113a152.36,152.36,0,0,1-55.79,70.56Q1018.68,959,970.79,959Z" transform="translate(-60.58 -60.5)"/><path class="cls-3" d="M1333.32,683.49q31.61-30.71,76.15-30.72,46,0,78.3,32.4t32.32,78V959h-68V763.17a42.56,42.56,0,0,0-42.62-42.72,40.53,40.53,0,0,0-29.7,12.48,41.27,41.27,0,0,0-12.45,30.24V959h-68V763.17a42.56,42.56,0,0,0-42.63-42.72A40.53,40.53,0,0,0,1227,732.93a41.27,41.27,0,0,0-12.45,30.24V958.53l-68,34.08V763.17q0-45.58,32.33-78t77.82-32.4Q1301.71,652.77,1333.32,683.49Z" transform="translate(-60.58 -60.5)"/><path class="cls-3" d="M919.55,1450.05q-42.87,43-103.69,43t-103.68-43q-42.87-42.94-42.86-103.92V1101.81h67.52v244.32q0,32.65,23.23,55.68t55.79,23q32.57,0,55.56-23t23-55.68V1101.81h68v244.32Q962.41,1407.11,919.55,1450.05Z" transform="translate(-60.58 -60.5)"/><path class="cls-3" d="M1015.56,1493v-391.2h121.16q80.94,0,137.93,57.36t57,138.48q0,81.13-57,138.24T1136.72,1493Zm121.16-68.16q52.68,0,89.8-37.44t37.12-89.76q0-52.79-37.12-90.24t-89.8-37.44h-53.63v254.88Z" transform="translate(-60.58 -60.5)"/></g></svg>